<svg width="18" height="19" fill="none" xmlns="http://www.w3.org/2000/svg"><g clip-path="url(#clip0)" fill="#000"><path d="M9 .773c-4.963 0-9 4.038-9 9 0 4.963 4.037 9 9 9s9-4.037 9-9c0-4.962-4.037-9-9-9zm0 16.875c-4.342 0-7.875-3.533-7.875-7.875 0-4.342 3.533-7.875 7.875-7.875 4.342 0 7.875 3.533 7.875 7.875 0 4.342-3.533 7.875-7.875 7.875z"/><path d="M9.563 4.148H8.437v5.858l3.54 3.54.796-.796-3.21-3.21V4.148z"/></g><defs><clipPath id="clip0"><path fill="#fff" transform="translate(0 .773)" d="M0 0h18v18H0z"/></clipPath></defs></svg>