<svg width="22" height="19" fill="none" xmlns="http://www.w3.org/2000/svg"><path d="M10.93 7.475c-2.052 0-3.715-1.598-3.715-3.568 0-1.971 1.663-3.569 3.714-3.569 2.052 0 3.715 1.598 3.715 3.569 0 1.97-1.663 3.568-3.715 3.568zm-7.514 0c-1.297 0-2.349-1.01-2.349-2.256 0-1.246 1.052-2.256 2.349-2.256 1.296 0 2.348 1.01 2.348 2.256 0 1.246-1.052 2.256-2.348 2.256zm15.027 0c-1.296 0-2.348-1.01-2.348-2.256 0-1.246 1.052-2.256 2.348-2.256 1.297 0 2.348 1.01 2.348 2.256 0 1.246-1.05 2.256-2.348 2.256zM16.13 9.5c.924-.727 1.761-.63 2.83-.63 1.598 0 2.899 1.242 2.899 2.768v4.48c0 .662-.563 1.2-1.256 1.2-2.99 0-2.63.053-2.63-.123 0-3.174.392-5.502-1.843-7.694z" fill="#000"/><path d="M9.913 8.886c1.867-.15 3.49.002 4.889 1.112 2.342 1.802 1.891 4.228 1.891 7.197 0 .785-.665 1.436-1.495 1.436-9.012 0-9.37.28-9.905-.857-.175-.385-.127-.263-.127-3.94 0-2.922 2.633-4.948 4.747-4.948zM2.899 8.87c1.074 0 1.907-.096 2.83.63-2.219 2.177-1.844 4.346-1.844 7.695 0 .177.3.124-2.585.124-.717 0-1.3-.558-1.3-1.245v-4.436C0 10.11 1.3 8.87 2.899 8.87z" fill="#000"/></svg>