<svg width="18" height="19" fill="none" xmlns="http://www.w3.org/2000/svg"><g clip-path="url(#clip0)" fill="#000"><path d="M9 18.773a9.002 9.002 0 01-9-9A8.94 8.94 0 012.636 3.41 8.941 8.941 0 019 .773a8.94 8.94 0 016.364 2.636A8.94 8.94 0 0118 9.773a9.006 9.006 0 01-3.18 6.866A9.003 9.003 0 019 18.773zM9 1.898c-4.342 0-7.875 3.533-7.875 7.875a7.88 7.88 0 002.783 6.008 7.877 7.877 0 0012.967-6.008c0-4.342-3.533-7.875-7.875-7.875z"/><path d="M9 9.773a3.379 3.379 0 01-3.375-3.375A3.379 3.379 0 019 3.023a3.379 3.379 0 013.375 3.375A3.379 3.379 0 019 9.773zm0-5.625c-1.24 0-2.25 1.01-2.25 2.25S7.76 8.648 9 8.648s2.25-1.01 2.25-2.25-1.01-2.25-2.25-2.25z"/><path d="M14.456 16.772a.563.563 0 01-.546-.7c.101-.402.152-.818.152-1.236 0-2.753-2.237-5.023-4.988-5.063h-.148c-2.751.04-4.989 2.31-4.989 5.063 0 .418.052.834.153 1.237a.563.563 0 01-1.091.273 6.21 6.21 0 01-.187-1.51 6.15 6.15 0 011.784-4.347 6.15 6.15 0 014.316-1.84h.176a6.15 6.15 0 014.316 1.84 6.15 6.15 0 011.784 4.347c0 .51-.063 1.019-.187 1.51a.563.563 0 01-.545.426z"/></g><defs><clipPath id="clip0"><path fill="#fff" transform="translate(0 .773)" d="M0 0h18v18H0z"/></clipPath></defs></svg>